<?xml version="1.0" encoding="UTF-8"?>
<svg id="Capa_1" data-name="Capa 1" xmlns="http://www.w3.org/2000/svg" viewBox="0 0 811.31 224.32">
  <defs>
    <style>
      .cls-1 {
        fill: #f49828;
      }

      .cls-2 {
        fill: #f49623;
      }

      .cls-3 {
        fill: #f4992b;
      }

      .cls-4 {
        fill: #f59a2d;
      }

      .cls-5 {
        fill: #f49726;
      }

      .cls-6 {
        fill: #fffffe;
      }

      .cls-7 {
        fill: #f4992a;
      }

      .cls-8 {
        fill: #f59b2f;
      }

      .cls-9 {
        fill: #fffefd;
      }

      .cls-10 {
        fill: #f49725;
      }

      .cls-11 {
        fill: #f49624;
      }

      .cls-12 {
        fill: #f59e36;
      }
    </style>
  </defs>
  <path class="cls-6" d="M297.08,92.46c-.81-1.9-1.32-3.03-1.76-4.18-9.86-25.67-19.73-51.33-29.57-77.01Q261.48,.15,249.22,.13c-7.52,0-7.61-.02-8.88,7.47-7.56,44.53-15.05,89.06-22.63,133.59-.41,2.43,.02,3.4,2.76,3.34,6.59-.15,13.21-.31,19.79,.05,4.29,.24,5.67-1.1,6.25-5.29,3.72-26.97,7.78-53.89,11.91-82.05,1.08,2.6,1.79,4.11,2.35,5.68,9.34,26.35,18.71,52.68,27.9,79.08,1.07,3.08,2.2,4.61,5.89,4.48,3.69-.13,5.88-.55,7.32-4.61,9.36-26.34,19.07-52.56,28.76-78.79,.59-1.61,.56-3.68,2.59-4.81,3.62,27.69,7.25,55.21,10.77,82.74,.32,2.47,1.01,3.59,3.79,3.52,7.24-.17,14.48-.15,21.72,0,2.89,.06,3.49-.75,2.9-3.54-1.04-4.9-1.58-9.91-2.31-14.87-5.9-39.71-11.78-79.43-17.72-119.13-1.03-6.87-1.13-6.86-8.45-6.86-2.74,0-5.5,.25-8.2-.06-3.68-.42-5.2,.97-6.43,4.39-10.5,29.1-21.24,58.12-32.22,87.99Zm514.23,52.02c-13.78-20.13-27.03-39.47-40.39-58.99,4.12-1.44,7.99-2.38,11.38-4.54,14.38-9.12,20.94-27.84,16.49-47.29-3.63-15.87-16.18-26.52-34.05-28.81-15.54-1.98-31.17-.41-46.75-1.02-3.57-.14-4.21,1.13-4.14,4.27,.2,9.26,.07,18.52,.07,27.78,0,34.69,.06,69.38-.09,104.06-.02,3.76,1.06,4.81,4.82,4.62,6.1-.3,12.24-.32,18.33,0,3.9,.21,5.2-.72,5.13-4.8-.27-15.53-.11-31.08-.11-46.61v-5.63c1.26,1.96,1.76,2.71,2.24,3.48,10.28,16.65,20.54,33.32,30.87,49.94,.93,1.49,1.39,3.56,3.98,3.54,10.4-.07,20.8-.03,32.24-.03Zm-190.87-70.34c0,21.98,0,43.95-.01,65.93,0,2.41-.4,4.53,3.49,4.5,22.69-.15,45.37-.12,68.06-.02,2.99,.01,3.42-1.27,3.37-3.69-.12-5.33-.23-10.68,.03-16.01,.16-3.3-.93-4.26-4.31-4.21-12.55,.19-25.1-.03-37.65,.14-3.41,.05-4.83-.59-4.73-4.33,.28-9.72,.29-19.47,0-29.19-.12-3.95,1.42-4.65,5.01-4.59,11.74,.18,23.49-.04,35.24,.14,3.44,.05,4.95-.68,4.71-4.39-.33-5.16-.35-10.37,0-15.53,.26-3.76-1.28-4.37-4.7-4.31-12.06,.19-24.14-.03-36.2,.14-3.22,.05-4.1-.97-4.02-4.01,.2-7.53,.25-15.07-.02-22.6-.13-3.58,1.08-4.53,4.65-4.47,12.71,.2,25.42,0,38.13,.13,2.92,.03,3.98-.8,3.87-3.72-.2-5.33-.25-10.68,.02-16.01,.17-3.31-.92-4.22-4.3-4.2-22.04,.14-44.09,.15-66.13,0-3.55-.03-4.63,.78-4.6,4.39,.18,21.98,.09,43.95,.09,65.93ZM.09,74.06C.09,95.88,.18,117.71,0,139.53c-.03,3.71,.63,5.11,4.87,5.06,21.72-.23,43.45-.21,65.18,0,4.01,.04,4.86-1.29,4.66-4.81-.27-4.85-.36-9.75,.02-14.59,.31-3.95-1.31-4.6-4.9-4.55-12.55,.19-25.11-.02-37.66,.14-3.15,.04-4.13-.82-4.07-3.94,.19-9.89,.22-19.79-.01-29.67-.08-3.47,.82-4.6,4.53-4.53,12.07,.23,24.14-.02,36.21,.16,3.41,.05,4.49-1.02,4.34-4.29-.24-5.33-.22-10.68,0-16.01,.12-3.14-1.05-3.96-4.18-3.92-12.07,.17-24.14-.11-36.21,.17-3.99,.09-4.81-1.22-4.68-4.78,.26-7.37,.25-14.76,0-22.13-.11-3.32,.94-4.26,4.33-4.21,12.71,.18,25.43,0,38.14,.13,3.04,.03,4.3-.67,4.14-3.88-.26-5.17-.28-10.37,0-15.54,.19-3.39-.64-4.56-4.42-4.53-21.89,.19-43.78,.21-65.66,0C.59,3.76,0,5.11,.01,8.58,.16,30.41,.09,52.23,.09,74.06Zm445.46,28.62c-4,4.32-7.19,8.07-10.71,11.5-7.47,7.28-7.54,7.21-.78,15.39,15.2,18.38,39.85,24.05,60.73,13.97,19.06-9.2,29.23-32.61,23.65-54.74-3.45-13.7-13.4-21.67-25.86-27.34-7.13-3.25-14.61-5.74-21.4-9.7-6.91-4.04-9.73-9.58-8.19-15.99,1.53-6.39,7.84-11.52,14.95-12.19,8.7-.83,15.79,2.26,21.38,8.62,1.84,2.09,2.84,2.37,4.47-.19,2.97-4.66,6.12-9.22,9.45-13.65,1.69-2.24,1.06-3.57-.89-5.03-13.77-10.33-29.08-15.52-46.45-12.11-27.41,5.39-41.8,39.36-26.36,61.87,6.49,9.47,16.74,13.89,27.05,18.05,4.9,1.98,9.96,3.6,14.43,6.45,10.13,6.44,12.62,18.3,5.99,28.39-5.58,8.5-16.92,10.45-26.94,4.61-6.61-3.86-10.86-9.66-14.54-17.9Zm135.85-16.47c0-17.91,.12-35.81-.09-53.72-.05-3.99,1.21-5.06,5.16-4.88,6.75,.31,13.52,0,20.28,.12,2.55,.04,3.83-.5,3.73-3.36-.19-5.81-.17-11.62,0-17.43,.08-2.63-1.08-3.09-3.44-3.09-26.56,.06-53.13,.07-79.69-.02-2.85-.01-3.55,.98-3.47,3.55,.16,5.49,.24,11-.02,16.49-.15,3.27,1.2,3.96,4.22,3.88,6.6-.18,13.22,.24,19.79-.16,4.48-.28,5.37,1.34,5.24,5.33-.29,8.79-.09,17.59-.09,26.38,0,26.86,.07,53.72-.09,80.57-.02,3.73,1.04,4.87,4.85,4.69,6.26-.3,12.56-.28,18.83,0,3.72,.17,4.94-.83,4.89-4.64-.21-17.9-.09-35.81-.09-53.72Zm-487.91-12.57c0,22.14-.01,44.29,.02,66.43,0,2.01-.88,4.47,2.97,4.45,20.61-.11,41.21-.09,61.82,0,2.77,.01,3.13-1.19,3.09-3.42-.11-5.49-.2-11,.03-16.49,.12-3.02-.73-4.06-3.97-3.99-10.14,.2-20.29-.18-30.42,.19-4.57,.17-5.48-1.29-5.46-5.47,.16-35.49,0-70.99,.21-106.48,.03-4.32-1.26-5.31-5.38-5.07-5.77,.34-11.6,.34-17.38,0-4.25-.25-5.7,.8-5.64,5.28,.27,21.51,.12,43.03,.12,64.55Zm320.05,1.43c0-22.3-.09-44.59,.09-66.89,.03-3.58-.97-4.51-4.55-4.37-7.07,.28-14.16,.17-21.24,.04-2.44-.05-3.48,.53-3.33,3.12,.21,3.6,.05,7.22,.05,10.83,0,40.98,.06,81.97-.09,122.95-.01,3.76,1.04,4.77,4.79,4.6,6.42-.3,12.89-.33,19.3,0,3.94,.2,5.12-.78,5.08-4.81-.22-21.82-.11-43.65-.11-65.48Zm31.55,110.82c1.71-4.72-1.21-4.09-3.72-4.24-3.55-.22-2.79,2.19-2.79,4.09-.03,10.67,.04,21.35-.05,32.02-.02,2.51,.14,3.99,3.49,3.99,3.33,0,3.48-1.43,3.52-3.96,.14-7.52-.73-15.07,.67-22.55,.58-3.07,1.74-5.8,4.77-7.21,5.57-2.59,13.07-.64,12.97,7.22-.1,7.84,.17,15.69,.12,23.54-.02,2.35,.98,3.12,3.17,2.83,1.67-.22,4.23,.96,4.11-2.31-.34-9.24,.92-18.53-.76-27.71-1.64-8.98-9.8-13.44-18.41-10.05-2.18,.85-4.04,2.45-7.09,4.36ZM92.57,224.32c6.63-14.11,12.83-27.3,19.03-40.48,.46-.97,.62-1.92-.86-1.95-3.08-.07-6.2-.97-7.77,3.34-2.2,6.03-5.18,11.79-7.91,17.62-.73,1.55-.9,3.53-2.87,4.59-.58-1.24-1.05-2.23-1.51-3.23-3.07-6.72-6.22-13.4-9.16-20.17-1.58-3.64-4.86-2.58-6.99-1.95-3.14,.92-.34,3.17,.23,4.43,5.63,12.28,11.48,24.46,17.82,37.82Zm127.57-57.03c-2.89-.49-3.75,.87-3.54,3.46,.15,1.87,.12,3.77,0,5.64-.14,2.25,1.15,5.07-3.07,5.59-1.77,.22-1.42,5.69,.53,6,2.93,.47,2.57,2.23,2.57,4.08,0,8.62,.1,17.25-.05,25.87-.05,2.79,.67,3.82,3.72,3.82,3.07,0,3.78-1.06,3.72-3.83-.16-8.15,.05-16.31-.11-24.46-.06-3.32-.04-6.01,4.62-5.32,2.75,.4,2.52-1.63,2.53-3.39,.01-1.64,.09-3.41-2.35-3.05-4.41,.65-5.17-1.61-4.79-5.17,.2-1.86-.11-3.77,.07-5.64,.29-2.93-.92-4.12-3.85-3.59Zm120.98,18.93c.65-5.46-2.46-4.36-4.83-4.36-3.06,0-2,2.35-2.01,3.81-.08,10.51-.05,21.03-.04,31.55,0,2.25-.75,4.56,3.36,4.56,3.88,0,3.48-1.95,3.56-4.39,.24-7.83-.9-15.71,.84-23.47,1.32-5.87,3.92-7.42,9.92-6.05,3.35,.77,2.63-2.35,3.75-3.65,1.54-1.78-.21-2.42-1.56-2.85-4.97-1.57-9.11-.18-12.98,4.86Zm252.15,0c.62-5.41-2.45-4.36-4.82-4.37-3.06,0-2.02,2.33-2.03,3.79-.08,10.52-.05,21.03-.04,31.55,0,2.24-.77,4.57,3.34,4.57,3.85,0,3.5-1.91,3.58-4.38,.23-7.83-.9-15.72,.83-23.47,1.32-5.89,3.93-7.45,9.91-6.07,3.35,.78,2.64-2.34,3.76-3.63,1.53-1.77-.17-2.43-1.55-2.86-4.97-1.56-9.12-.21-12.98,4.86Zm-195.23,15.33c0-5.5-.1-10.99,.05-16.49,.06-2.39-.62-3.38-3.23-3.31-2.39,.06-3.87,.22-3.83,3.23,.16,11.15,.16,22.3,0,33.45-.04,2.96,1.29,3.23,3.75,3.26,2.47,.02,3.4-.64,3.32-3.17-.17-5.65-.05-11.3-.05-16.96Zm252.13,.73c0-5.81-.12-11.62,.05-17.43,.08-2.65-1.12-3.13-3.45-3.09-2.18,.04-3.63,.18-3.59,2.96,.12,11.3,.13,22.61,0,33.91-.03,2.69,1.18,3.07,3.48,3.02,2.13-.05,3.69-.03,3.58-2.9-.2-5.49-.06-10.99-.06-16.48Zm-255.43-30.6c2.63-.52,4.65-1.91,4.64-4.86-.02-2.87-1.74-4.77-4.73-4.84-3.23-.08-5.14,1.91-5.08,4.95,.06,2.84,2.1,4.35,5.17,4.75Zm256.86-4.82c-.29-2.75-1.68-4.74-4.7-4.88-3.26-.15-5.18,1.8-5.2,4.83-.01,2.83,1.94,4.67,4.87,4.73,2.97,.06,4.6-1.76,5.03-4.68Z"/>
  <path class="cls-10" d="M297.08,92.46c10.98-29.88,21.73-58.89,32.22-87.99,1.23-3.42,2.76-4.81,6.43-4.39,2.7,.31,5.46,.06,8.2,.06,7.32,0,7.42-.01,8.45,6.86,5.93,39.71,11.81,79.42,17.72,119.13,.74,4.96,1.27,9.97,2.31,14.87,.59,2.79-.01,3.59-2.9,3.54-7.24-.14-14.49-.16-21.72,0-2.78,.06-3.48-1.05-3.79-3.52-3.52-27.53-7.15-55.05-10.77-82.74-2.02,1.14-1.99,3.2-2.59,4.81-9.68,26.23-19.4,52.45-28.76,78.79-1.44,4.06-3.63,4.48-7.32,4.61-3.69,.13-4.82-1.4-5.89-4.48-9.19-26.4-18.56-52.73-27.9-79.08-.55-1.56-1.27-3.08-2.35-5.68-4.13,28.16-8.19,55.09-11.91,82.05-.58,4.19-1.96,5.53-6.25,5.29-6.58-.36-13.19-.2-19.79-.05-2.74,.06-3.18-.9-2.76-3.34,7.58-44.52,15.08-89.06,22.63-133.59,1.27-7.49,1.37-7.47,8.88-7.47q12.29,0,16.51,11.13c9.84,25.68,19.71,51.34,29.57,77.01,.44,1.15,.96,2.28,1.76,4.18Z"/>
  <path class="cls-11" d="M811.31,144.48c-11.45,0-21.84-.04-32.24,.03-2.59,.02-3.05-2.05-3.98-3.54-10.33-16.62-20.59-33.29-30.87-49.94-.48-.77-.98-1.53-2.24-3.48v5.63c0,15.54-.16,31.08,.11,46.61,.07,4.08-1.23,5-5.13,4.8-6.1-.32-12.23-.3-18.33,0-3.75,.18-4.83-.86-4.82-4.62,.16-34.69,.09-69.38,.09-104.06,0-9.26,.13-18.52-.07-27.78-.07-3.14,.58-4.41,4.14-4.27,15.57,.61,31.21-.96,46.75,1.02,17.87,2.28,30.42,12.94,34.05,28.81,4.45,19.44-2.11,38.17-16.49,47.29-3.39,2.15-7.26,3.1-11.38,4.54,13.37,19.52,26.61,38.86,40.39,58.99Zm-69.32-97.21v11.28q0,10.66,11,9.54c12.39-1.26,18.85-8.28,18.95-20.6,.11-12.68-5.76-19.38-18.43-20.83-2.86-.33-5.78-.09-8.66-.3-2.45-.18-2.93,.96-2.9,3.06,.1,5.95,.04,11.91,.03,17.86Z"/>
  <path class="cls-5" d="M620.44,74.13c0-21.98,.09-43.95-.09-65.93-.03-3.6,1.04-4.41,4.6-4.39,22.04,.16,44.09,.15,66.13,0,3.38-.02,4.47,.89,4.3,4.2-.27,5.32-.22,10.68-.02,16.01,.11,2.92-.95,3.75-3.87,3.72-12.71-.13-25.42,.07-38.13-.13-3.58-.06-4.78,.9-4.65,4.47,.27,7.53,.21,15.07,.02,22.6-.08,3.04,.81,4.06,4.02,4.01,12.07-.17,24.14,.05,36.2-.14,3.42-.05,4.96,.55,4.7,4.31-.35,5.16-.34,10.37,0,15.53,.24,3.72-1.27,4.44-4.71,4.39-11.74-.18-23.49,.05-35.24-.14-3.59-.06-5.13,.65-5.01,4.59,.3,9.72,.28,19.47,0,29.19-.11,3.74,1.31,4.38,4.73,4.33,12.55-.18,25.1,.04,37.65-.14,3.38-.05,4.47,.91,4.31,4.21-.26,5.32-.15,10.67-.03,16.01,.05,2.42-.38,3.71-3.37,3.69-22.69-.1-45.38-.13-68.06,.02-3.89,.03-3.49-2.09-3.49-4.5,.02-21.98,.01-43.95,.01-65.93Z"/>
  <path class="cls-11" d="M.09,74.06c0-21.82,.07-43.65-.07-65.47C0,5.11,.59,3.76,4.63,3.8c21.89,.22,43.78,.2,65.66,0,3.78-.03,4.61,1.13,4.42,4.53-.28,5.17-.26,10.37,0,15.54,.16,3.21-1.1,3.91-4.14,3.88-12.71-.14-25.43,.05-38.14-.13-3.38-.05-4.43,.89-4.33,4.21,.24,7.37,.26,14.76,0,22.13-.13,3.56,.7,4.87,4.68,4.78,12.06-.28,24.14,0,36.21-.17,3.12-.04,4.3,.78,4.18,3.92-.21,5.33-.23,10.68,0,16.01,.15,3.28-.93,4.34-4.34,4.29-12.07-.18-24.14,.08-36.21-.16-3.71-.07-4.61,1.06-4.53,4.53,.23,9.89,.2,19.78,.01,29.67-.06,3.11,.92,3.98,4.07,3.94,12.55-.16,25.11,.05,37.66-.14,3.59-.05,5.21,.6,4.9,4.55-.39,4.84-.3,9.74-.02,14.59,.2,3.52-.65,4.85-4.66,4.81-21.72-.21-43.45-.22-65.18,0C.63,144.64-.03,143.24,0,139.53c.18-21.82,.09-43.65,.09-65.47Z"/>
  <path class="cls-10" d="M445.54,102.68c3.68,8.24,7.93,14.04,14.54,17.9,10.01,5.85,21.35,3.89,26.94-4.61,6.63-10.09,4.14-21.95-5.99-28.39-4.48-2.85-9.54-4.47-14.43-6.45-10.31-4.16-20.56-8.58-27.05-18.05-15.44-22.52-1.04-56.48,26.36-61.87,17.37-3.42,32.68,1.78,46.45,12.11,1.95,1.46,2.58,2.79,.89,5.03-3.33,4.42-6.49,8.98-9.45,13.65-1.63,2.56-2.62,2.28-4.47,.19-5.59-6.36-12.68-9.45-21.38-8.62-7.11,.68-13.42,5.81-14.95,12.19-1.54,6.41,1.28,11.96,8.19,15.99,6.78,3.96,14.27,6.45,21.4,9.7,12.46,5.67,22.4,13.64,25.86,27.34,5.58,22.13-4.59,45.54-23.65,54.74-20.89,10.09-45.53,4.42-60.73-13.97-6.76-8.18-6.69-8.11,.78-15.39,3.52-3.43,6.71-7.18,10.71-11.5Z"/>
  <path class="cls-1" d="M581.39,86.21c0,17.91-.12,35.81,.09,53.72,.05,3.82-1.17,4.81-4.89,4.64-6.27-.28-12.57-.3-18.83,0-3.81,.18-4.87-.96-4.85-4.69,.16-26.86,.09-53.72,.09-80.57,0-8.8-.2-17.6,.09-26.38,.13-3.99-.76-5.61-5.24-5.33-6.57,.4-13.2-.02-19.79,.16-3.02,.08-4.37-.6-4.22-3.88,.26-5.49,.18-10.99,.02-16.49-.07-2.57,.62-3.56,3.47-3.55,26.56,.1,53.13,.08,79.69,.02,2.36,0,3.51,.46,3.44,3.09-.17,5.81-.19,11.63,0,17.43,.09,2.86-1.18,3.4-3.73,3.36-6.76-.12-13.53,.19-20.28-.12-3.95-.18-5.21,.89-5.16,4.88,.22,17.9,.09,35.81,.09,53.72Z"/>
  <path class="cls-11" d="M93.48,73.65c0-21.52,.15-43.03-.12-64.55-.06-4.48,1.39-5.53,5.64-5.28,5.77,.34,11.6,.34,17.38,0,4.12-.25,5.41,.74,5.38,5.07-.21,35.49-.05,70.99-.21,106.48-.02,4.17,.89,5.63,5.46,5.47,10.13-.37,20.28,.01,30.42-.19,3.25-.06,4.1,.98,3.97,3.99-.23,5.49-.14,10.99-.03,16.49,.04,2.23-.32,3.43-3.09,3.42-20.61-.1-41.21-.11-61.82,0-3.85,.02-2.97-2.44-2.97-4.45-.03-22.14-.02-44.29-.02-66.43Z"/>
  <path class="cls-2" d="M413.53,75.08c0,21.83-.12,43.65,.11,65.48,.04,4.03-1.14,5.01-5.08,4.81-6.42-.33-12.88-.31-19.3,0-3.74,.17-4.8-.84-4.79-4.6,.15-40.98,.09-81.96,.09-122.95,0-3.61,.16-7.23-.05-10.83-.15-2.58,.9-3.16,3.33-3.12,7.08,.13,14.17,.25,21.24-.04,3.58-.14,4.58,.78,4.55,4.37-.18,22.3-.09,44.59-.09,66.89Z"/>
  <path class="cls-3" d="M164.77,203.23c-4.18,0-8.36,.15-12.53-.04-3.47-.16-3.7,1.26-2.76,3.97,1.62,4.68,4.66,7.84,9.68,8.81,5.34,1.03,9.8-.51,13.28-4.71,1.05-1.26,1.46-3.51,4.34-1.99,3.18,1.68,3.84,3.02,1.38,5.91-5.76,6.76-15.51,9.44-23.97,6.26-8.02-3.01-13.15-11.28-12.6-20.3,.99-16.14,15.02-25.27,28.63-18.52,7.35,3.64,10.14,10.02,10.63,17.7,.15,2.35-.86,2.98-3.07,2.93-4.33-.1-8.67-.03-13.01-.03Zm-3.81-5.99c3.05,0,6.11-.11,9.15,.03,3.46,.16,3.33-1.33,2.05-3.66-2.23-4.06-5.71-6.5-10.36-6.62-4.63-.12-8.3,2.12-10.85,5.93-.68,1.02-1.62,2.17-1.1,3.45,.64,1.56,2.24,.77,3.39,.83,2.56,.13,5.14,.04,7.71,.04Z"/>
  <path class="cls-3" d="M720.68,186.3c0-2.68,.2-4.88,3.96-4.61,2.8,.2,3.5,1.1,3.48,3.64-.11,10.49,.03,20.99-.11,31.49-.02,1.77,1.57,4.71-2.47,4.83-3.13,.09-6.1,.29-4.5-4.73-11.31,7.71-21.14,7.42-28.29-.29-7.42-8.01-7.53-21.49-.24-29.78,6.83-7.77,16.77-8.03,28.16-.55Zm-13.03,29.95c8.12,.05,13.73-6.05,13.7-14.9-.03-8.31-5.99-14.56-13.78-14.46-7.49,.1-13.11,6.34-13.09,14.53,.02,8.83,5.3,14.77,13.17,14.82Z"/>
  <path class="cls-3" d="M282.9,203.23c-4.18,0-8.37,.11-12.55-.03-3.09-.1-3.52,1.29-2.79,3.78,1.36,4.61,4.34,7.75,9.07,8.86,5.43,1.28,10.12-.14,13.84-4.48,.9-1.05,1.05-3.5,3.86-2.33,4.39,1.83,4.74,2.63,1.7,6.25-6.14,7.32-16.61,9.58-25.33,5.45-8.59-4.07-12.88-14.24-10.38-24.6,2.48-10.29,11.01-16.57,21.04-15.48,10.34,1.13,17.38,9.07,17.66,19.65,.07,2.42-.9,2.98-3.08,2.93-4.34-.09-8.69-.03-13.04-.02Zm-3.68-5.99c2.9,0,5.8-.12,8.68,.03,3.03,.16,3.87-.87,2.44-3.53-2.28-4.24-5.86-6.66-10.76-6.81-4.57-.14-9.79,3.5-11.43,7.46-.83,2.02-.47,2.92,1.9,2.86,3.05-.08,6.11-.02,9.17-.02Z"/>
  <path class="cls-7" d="M540.37,186.44c1.02-1.87-.54-4.91,3.32-4.72,2.85,.14,4.28,.43,4.2,3.8-.24,10.49-.02,20.99-.15,31.48-.02,1.76,1.53,4.48-2.56,4.73-3.56,.22-4.99-.89-4.17-5.52-5.76,5.57-11.68,7.4-18.38,6.14-4.57-.86-8.3-3.23-11.13-6.89-6.61-8.54-5.87-21.99,1.63-29.44,7.14-7.1,16.82-7.05,27.24,.42Zm.7,14.88c-.03-8.44-5.87-14.57-13.74-14.42-7.4,.14-13.29,6.62-13.23,14.58,.06,8.55,5.68,14.74,13.4,14.78,8.21,.04,13.6-5.9,13.57-14.94Z"/>
  <path class="cls-4" d="M445.08,185.9c3.05-1.91,4.92-3.51,7.09-4.36,8.61-3.38,16.78,1.07,18.41,10.05,1.67,9.18,.41,18.48,.76,27.71,.12,3.27-2.43,2.09-4.11,2.31-2.18,.29-3.18-.47-3.17-2.83,.05-7.85-.22-15.69-.12-23.54,.1-7.86-7.4-9.81-12.97-7.22-3.03,1.41-4.19,4.13-4.77,7.21-1.41,7.49-.53,15.04-.67,22.55-.05,2.53-.19,3.96-3.52,3.96-3.35,0-3.51-1.47-3.49-3.99,.09-10.67,.03-21.35,.05-32.02,0-1.9-.76-4.31,2.79-4.09,2.51,.15,5.43-.47,3.72,4.24Z"/>
  <path class="cls-3" d="M92.57,224.32c-6.33-13.35-12.18-25.54-17.82-37.82-.57-1.25-3.38-3.5-.23-4.43,2.13-.63,5.42-1.69,6.99,1.95,2.94,6.77,6.09,13.46,9.16,20.17,.46,1,.93,1.99,1.51,3.23,1.97-1.06,2.14-3.03,2.87-4.59,2.73-5.84,5.71-11.6,7.91-17.62,1.57-4.31,4.69-3.41,7.77-3.34,1.48,.03,1.32,.98,.86,1.95-6.2,13.19-12.4,26.38-19.03,40.48Z"/>
  <path class="cls-12" d="M220.14,167.3c2.93-.53,4.13,.66,3.85,3.59-.18,1.86,.13,3.78-.07,5.64-.38,3.56,.38,5.83,4.79,5.17,2.44-.36,2.37,1.41,2.35,3.05-.01,1.76,.22,3.79-2.53,3.39-4.66-.68-4.69,2-4.62,5.32,.15,8.15-.05,16.31,.11,24.46,.05,2.78-.66,3.84-3.72,3.83-3.05,0-3.78-1.03-3.72-3.82,.16-8.62,.06-17.25,.05-25.87,0-1.85,.36-3.61-2.57-4.08-1.94-.31-2.3-5.79-.53-6,4.23-.51,2.94-3.33,3.07-5.59,.12-1.87,.15-3.77,0-5.64-.21-2.58,.65-3.95,3.54-3.46Z"/>
  <path class="cls-10" d="M341.12,186.22c3.87-5.05,8-6.43,12.98-4.86,1.36,.43,3.1,1.07,1.56,2.85-1.12,1.29-.4,4.41-3.75,3.65-5.99-1.37-8.6,.17-9.92,6.05-1.74,7.76-.6,15.65-.84,23.47-.08,2.44,.32,4.39-3.56,4.39-4.11,0-3.36-2.31-3.36-4.56-.01-10.52-.04-21.03,.04-31.55,.01-1.45-1.05-3.8,2.01-3.81,2.36,0,5.48-1.09,4.83,4.36Z"/>
  <path class="cls-10" d="M593.27,186.23c3.87-5.07,8.01-6.42,12.98-4.86,1.37,.43,3.08,1.09,1.55,2.86-1.12,1.29-.41,4.4-3.76,3.63-5.97-1.38-8.59,.18-9.91,6.07-1.73,7.76-.6,15.65-.83,23.47-.07,2.46,.28,4.38-3.58,4.38-4.11,0-3.34-2.33-3.34-4.57-.02-10.52-.04-21.03,.04-31.55,.01-1.46-1.03-3.8,2.03-3.79,2.37,0,5.45-1.04,4.82,4.37Z"/>
  <path class="cls-5" d="M398.03,201.56c0,5.65-.12,11.31,.05,16.96,.08,2.53-.85,3.2-3.32,3.17-2.46-.02-3.8-.3-3.75-3.26,.17-11.15,.16-22.3,0-33.45-.04-3.01,1.44-3.17,3.83-3.23,2.61-.07,3.29,.92,3.23,3.31-.14,5.49-.05,10.99-.05,16.49Z"/>
  <path class="cls-5" d="M650.16,202.29c0,5.5-.14,11,.06,16.48,.11,2.87-1.46,2.85-3.58,2.9-2.29,.05-3.51-.33-3.48-3.02,.13-11.3,.13-22.61,0-33.91-.03-2.78,1.42-2.92,3.59-2.96,2.33-.04,3.53,.43,3.45,3.09-.17,5.8-.05,11.62-.05,17.43Z"/>
  <path class="cls-8" d="M394.73,171.69c-3.07-.4-5.11-1.91-5.17-4.75-.06-3.04,1.85-5.03,5.08-4.95,2.99,.07,4.71,1.96,4.73,4.84,.02,2.95-2,4.35-4.64,4.86Z"/>
  <path class="cls-8" d="M651.6,166.87c-.43,2.92-2.06,4.74-5.03,4.68-2.93-.06-4.88-1.9-4.87-4.73,.02-3.03,1.94-4.98,5.2-4.83,3.02,.14,4.41,2.12,4.7,4.88Z"/>
  <path class="cls-9" d="M741.98,47.26c0-5.95,.07-11.91-.03-17.86-.04-2.1,.45-3.24,2.9-3.06,2.88,.21,5.8-.03,8.66,.3,12.67,1.45,18.54,8.15,18.43,20.83-.1,12.32-6.56,19.34-18.95,20.6q-11,1.12-11-9.54c0-3.76,0-7.52,0-11.28Z"/>
</svg>