<?xml version="1.0" encoding="UTF-8"?>
<svg id="Capa_1" data-name="Capa 1" xmlns="http://www.w3.org/2000/svg" viewBox="0 0 867.05 528.51">
  <defs>
    <style>
      .cls-1 {
        fill: #fff;
      }

      .cls-2 {
        fill: #2fb092;
      }

      .cls-3 {
        fill: #feffff;
      }

      .cls-4 {
        fill: #30b092;
      }

      .cls-5 {
        fill: #31b192;
      }

      .cls-6 {
        fill: #2fb091;
      }

      .cls-7 {
        fill: #2eb091;
      }

      .cls-8 {
        fill: #36b194;
      }
    </style>
  </defs>
  <path class="cls-6" d="M565.05,389.51c-1.96,6.71-1.27,13.69-1.95,20.53-3.28,32.83-11.23,64.03-32.91,89.96-18.77,22.45-43.46,31.04-72.25,27.87-28.49-3.13-53.42-15.62-77.32-30.49-15.57-9.69-30.36-20.52-44.42-32.29-3.56-2.98-5.67-3.18-9.48-.1-25.55,20.7-52.22,39.74-83.17,51.76-18.12,7.04-36.65,11.86-56.45,9.81-30.43-3.15-52.45-18.8-67.11-45.09-11.2-20.07-16.74-42.09-18.6-64.75-4.29-52.2-2.88-104.56-1.67-156.82,.96-41.25,5.58-82.37,7.29-123.62,.17-3.99,.04-7.99-.11-11.98-.11-2.93-1.35-3.39-4.43-2.81-24.71,4.7-49.55,6.45-74.18-.14-13.78-3.68-24.55-11.42-27.61-26.47-2.09-10.29,.7-20.02,5.86-28.75C24.65,35.56,49.64,12.73,84.25,2.75c24.81-7.16,46.97,.09,66,17.21,10.3,9.26,17.88,20.5,24.19,32.75,8.6,16.7,17.04,33.48,26.9,49.51,4.51,7.33,10.21,10.66,19.21,10.62,74.15-.29,148.3-.26,222.44-.03,8.34,.03,13.8-3.03,18.08-9.89,11-17.68,19.97-36.45,29.78-54.77,7.34-13.71,16.84-25.63,29.64-34.57,23.44-16.39,48.46-17.63,73.75-5.39,24.61,11.91,44.56,29.69,59.25,52.87,6.09,9.62,10.46,20.09,8.88,32.01-1.51,11.36-7.97,19.13-17.82,24.34-11.49,6.08-24.08,7.49-36.75,7.97-14.66,.55-29.28-.58-43.8-2.7-1.32-.19-2.68-.08-3.98-.33-3.51-.69-4.45,1.01-4.2,4.14,.85,10.61,1.71,21.23,2.44,31.85,1.26,18.43,2.92,36.86,3.54,55.31,1.14,33.96,1.66,67.94,2.42,101.91,.3,13.32,.52,26.64,.77,39.96-1.69,8.98-.42,18.05-.93,27.07-.05,.86,.3,1.61,1.06,2.1-.01,1.61-.03,3.22-.04,4.83Zm-236.18,50.07c1.83,0,3.65,0,5.48,0-.05,.48-.3,1.24-.11,1.39,18.12,13.54,35.26,28.42,54.56,40.36,22.35,13.83,45.39,26,72.11,28.72,19.15,1.95,36.52-2.68,50.52-16.38,19.34-18.93,27.27-43.44,31.53-69.18,4.67-28.18,4.3-56.73,3.8-85.2-.6-34.3-1.68-68.59-2.38-102.89-.61-29.48-2.74-58.85-4.92-88.24-.64-8.61-2.25-17.18-1.44-25.88,1.06-11.43,9.75-19.26,20.85-18.16,11.42,1.13,22.81,2.66,34.29,3.13,14.03,.58,28.03,.44,41.26-5.12,9.3-3.91,11.95-9.94,9.15-19.67-1.06-3.69-2.48-7.25-4.5-10.52-11.98-19.46-28.44-34.34-48.26-45.27-26.05-14.36-50.13-10.26-70.63,11.08-6.65,6.93-11.57,14.99-15.92,23.46-9.89,19.22-19.74,38.47-31.53,56.62-5.44,8.38-13.1,12.96-23.4,12.78-9.83-.16-19.66,0-29.48,0-66.97,.01-133.94-.18-200.91,.2-14.12,.08-24.52-4.64-31.44-16.91-6.45-11.43-12.91-22.86-19.35-34.3-7.24-12.88-12.74-26.75-22.25-38.35-18.44-22.5-44.71-29-69.67-16.87-18.79,9.13-33.89,22.83-46.88,38.92-4.82,5.97-8.49,12.72-10.35,20.31-2.12,8.67,.3,14.13,8.27,17.99,2.53,1.22,5.21,2.29,7.94,2.9,21.33,4.74,42.69,3.79,63.84-.81,13.29-2.89,22.89,2.56,25.16,16,2.52,14.94,.24,29.94-.51,44.85-1.67,33.08-5.37,66.08-6.05,99.17-1.03,49.93-2.26,99.93,1.55,149.82,1.39,18.16,5.72,35.78,13.13,52.49,14.25,32.15,43.12,47.62,77.31,41.77,20.82-3.56,39.66-12.15,57.7-22.67,20.05-11.69,38.39-25.82,56.16-40.67,1.82-1.52,5.13-1.6,5.39-4.86Z"/>
  <path class="cls-5" d="M565.05,389.51c.01-1.61,.03-3.22,.04-4.83,1.27-9.71,.88-19.47,.94-29.21,1.22-17.43,2.39-34.87,3.69-52.29,.44-5.84,0-11.51-.91-17.33-3.56-22.86-6.7-45.79-2.67-68.96,.39-2.26,1.18-4.53,2.16-6.61,4.3-9.15,13.57-11.75,22.07-6.23,8.48,5.52,14.07,13.63,19.13,22.08,8.03,13.42,15.96,26.9,23.67,40.49,3.03,5.34,6.81,7.47,13.22,7.43,46.31-.3,92.63-.28,138.94-.01,6.04,.03,9.57-2.12,12.41-7.05,8.13-14.13,16.35-28.21,24.75-42.18,4.73-7.86,10.07-15.32,17.96-20.48,9.22-6.03,18.65-3.36,22.76,6.93,4.7,11.75,4.11,24.19,3.31,36.47-.95,14.59-1.89,29.17-5.14,43.56-1.65,7.31,.07,14.99,.85,22.38,3.83,36.68,4.15,73.46,3.6,110.27-.24,16.35-1.83,32.5-7.87,47.97-10.47,26.88-35.75,41.65-64.36,37.85-20.93-2.79-39.49-11.37-57.21-22.19-5.54-3.38-11.05-6.86-16.23-10.74-3.29-2.47-5.57-2.6-9.05-.09-15.44,11.11-31.68,20.88-49.71,27.28-16.94,6.01-34.15,9.06-51.79,3.2-20.33-6.75-32.17-21.49-38.55-41.37-4.48-13.97-5.39-28.38-5.71-42.87-.25-11.16-.19-22.32-.27-33.48Zm282.46-168.16c-5.22,6-9.1,11.79-12.59,17.84-8.21,14.28-16.2,28.68-25.45,42.34-5.04,7.44-12.02,10.67-20.77,10.67-48.82,0-97.63,0-146.45,0-8.54,0-15.58-3.02-20.37-10.41-1.45-2.23-3.09-4.34-4.46-6.62-8.91-14.83-17.69-29.74-26.69-44.52-1.9-3.12-3.87-6.4-7.45-8.81-1.8,16.2-.25,31.75,1.19,47.3,1.15,12.36,4.71,24.41,3.29,37.13-1.77,15.87-2.52,31.85-3.75,47.77-1.83,23.63-.36,47.29-.42,70.93-.03,11.83,.88,23.59,4.46,35.01,7.52,23.98,23.37,33.24,43,32.07,30.28-1.81,53.98-18.89,78.14-35.88-4.91-2.14-9.5-3.07-13.43-5.61-2.15-1.39-4.54-2.85-4.42-5.6,.13-2.98,2.67-5,5.26-5.34,12.7-1.63,25.46-1.77,38.16,.09,2.38,.35,4.76,2.23,4.98,5.02,.22,2.81-2.04,4.32-4.19,5.72-3.99,2.61-8.73,3.5-13.5,5.71,20,14.55,40.05,27.87,63.89,33.95,14.75,3.76,29.25,3.44,41.88-6.3,11.87-9.15,16.35-22.58,18.03-36.67,3.32-27.84,2.55-55.87,1.54-83.81-.74-20.28-2.63-40.52-4.24-60.76-1.18-14.82,4.02-28.92,4.49-43.56,.4-12.24,2.21-24.45-.15-37.65Z"/>
  <path class="cls-1" d="M328.88,439.58c-.27,3.26-3.57,3.34-5.39,4.86-17.77,14.86-36.11,28.98-56.16,40.67-18.04,10.52-36.88,19.1-57.7,22.67-34.19,5.85-63.07-9.62-77.31-41.77-7.41-16.72-11.74-34.33-13.13-52.49-3.81-49.89-2.58-99.89-1.55-149.82,.68-33.08,4.39-66.09,6.05-99.17,.75-14.91,3.03-29.9,.51-44.85-2.27-13.44-11.87-18.89-25.16-16-21.15,4.6-42.51,5.56-63.84,.81-2.73-.61-5.41-1.68-7.94-2.9-7.97-3.86-10.39-9.32-8.27-17.99,1.86-7.58,5.53-14.34,10.35-20.31,12.99-16.09,28.09-29.79,46.88-38.92,24.96-12.12,51.23-5.62,69.67,16.87,9.51,11.6,15.01,25.47,22.25,38.35,6.43,11.44,12.9,22.87,19.35,34.3,6.92,12.27,17.33,16.99,31.44,16.91,66.97-.39,133.94-.19,200.91-.2,9.83,0,19.66-.17,29.48,0,10.3,.17,17.96-4.41,23.4-12.78,11.79-18.15,21.65-37.4,31.53-56.62,4.35-8.47,9.27-16.53,15.92-23.46,20.51-21.35,44.59-25.45,70.63-11.08,19.83,10.93,36.28,25.81,48.26,45.27,2.01,3.27,3.44,6.83,4.5,10.52,2.8,9.73,.16,15.76-9.15,19.67-13.23,5.56-27.23,5.7-41.26,5.12-11.48-.47-22.87-1.99-34.29-3.13-11.1-1.1-19.79,6.73-20.85,18.16-.81,8.71,.8,17.28,1.44,25.88,2.18,29.39,4.31,58.77,4.92,88.24,.71,34.3,1.78,68.59,2.38,102.89,.5,28.47,.87,57.02-3.8,85.2-4.26,25.74-12.19,50.25-31.53,69.18-14,13.7-31.37,18.32-50.52,16.38-26.72-2.71-49.76-14.89-72.11-28.72-19.31-11.94-36.44-26.82-54.56-40.36-.2-.15,.06-.91,.1-1.39,10.87,0,21.22-2.01,30.08-8.71,7.59-5.74,7.49-13.35-.03-19.1-1.7-1.3-3.62-2.35-5.53-3.36-6.91-3.64-14.48-5-22.11-5.46-13.32-.8-26.38,.52-37.72,8.45-8.4,5.88-8.32,14.08,.05,19.99,8.89,6.27,19.05,8.35,29.77,8.19Zm138.3-27.7c.05-9.88-7.37-17.47-17.17-17.58-9.97-.1-17.89,7.69-17.84,17.55,.05,9.47,8.06,17.45,17.56,17.5,9.49,.05,17.4-7.87,17.45-17.48Zm-250.3-17.57c-9.62,0-17.58,7.82-17.61,17.32-.03,9.68,8.18,17.84,17.86,17.73,9.51-.11,17.23-8.08,17.18-17.74-.06-9.84-7.57-17.3-17.44-17.31Z"/>
  <path class="cls-7" d="M328.88,439.58c-10.72,.16-20.88-1.92-29.77-8.19-8.37-5.91-8.46-14.11-.05-19.99,11.33-7.92,24.4-9.25,37.72-8.45,7.63,.46,15.2,1.82,22.11,5.46,1.91,1,3.82,2.06,5.53,3.36,7.52,5.75,7.62,13.36,.03,19.1-8.86,6.7-19.22,8.71-30.08,8.71-1.83,0-3.65,0-5.48,0Z"/>
  <path class="cls-3" d="M847.52,221.36c2.37,13.2,.55,25.41,.15,37.65-.47,14.64-5.67,28.74-4.49,43.56,1.61,20.24,3.51,40.48,4.24,60.76,1.01,27.94,1.78,55.96-1.54,83.81-1.68,14.08-6.16,27.51-18.03,36.67-12.63,9.75-27.13,10.06-41.88,6.3-23.84-6.08-43.9-19.4-63.89-33.95,4.77-2.2,9.51-3.1,13.5-5.71,2.15-1.4,4.4-2.91,4.19-5.72-.21-2.8-2.6-4.67-4.98-5.02-12.69-1.86-25.46-1.71-38.16-.09-2.59,.33-5.13,2.35-5.26,5.34-.12,2.75,2.27,4.21,4.42,5.6,3.93,2.53,8.52,3.47,13.43,5.61-24.16,16.99-47.85,34.07-78.14,35.88-19.63,1.17-35.48-8.09-43-32.07-3.58-11.42-4.49-23.18-4.46-35.01,.06-23.64-1.41-47.3,.42-70.93,1.23-15.93,1.98-31.91,3.75-47.77,1.42-12.72-2.14-24.77-3.29-37.13-1.44-15.54-2.99-31.09-1.19-47.3,3.58,2.41,5.55,5.68,7.45,8.81,9,14.78,17.78,29.68,26.69,44.52,1.37,2.28,3.01,4.39,4.46,6.62,4.79,7.4,11.83,10.41,20.37,10.41,48.82,.01,97.63,0,146.45,0,8.76,0,15.73-3.23,20.77-10.67,9.25-13.66,17.23-28.07,25.45-42.34,3.48-6.06,7.37-11.84,12.59-17.84Zm-3.32,20.29c-3.49,.79-4.06,3.07-4.96,4.92-4.53,9.24-9.07,18.48-13.4,27.82-1.92,4.14-6.77,8.96-4.87,12.26,1.72,2.97,8.23,3.18,12.63,4.61,.16,.05,.33,.07,.48,.13,1.99,.77,2.99,.24,3.27-2.02,.62-4.93,1.48-9.84,2.18-14.76,1.55-10.81,3.06-21.63,4.66-32.94Zm-254.88,.07c.09,1.41,.09,2.39,.22,3.35,1.87,13.16,3.82,26.31,5.63,39.47,1.06,7.73,.97,7.73,8.67,5.44,1.91-.57,3.82-1.18,5.76-1.61,3.09-.68,4.01-1.85,2.38-5.09-6.21-12.32-12.11-24.79-18.18-37.18-.84-1.72-1.47-3.75-4.48-4.38Zm192.25,185.82c-6.38-.16-11.83,5.06-11.99,11.49-.16,6.34,5.24,11.87,11.6,11.88,6.17,0,11.51-5.09,11.76-11.24,.26-6.27-5.09-11.98-11.37-12.13Zm-141.03,14.76c.09,6.4,5.59,11.75,11.92,11.6,6.38-.15,11.72-5.73,11.49-12.01-.22-6.14-5.56-11.35-11.66-11.35-6.34,0-11.84,5.49-11.75,11.76Z"/>
  <path class="cls-4" d="M467.17,411.88c-.05,9.6-7.96,17.52-17.45,17.48-9.5-.05-17.52-8.04-17.56-17.5-.05-9.86,7.87-17.65,17.84-17.55,9.81,.1,17.22,7.7,17.17,17.58Z"/>
  <path class="cls-2" d="M216.87,394.31c9.86,0,17.38,7.47,17.44,17.31,.05,9.65-7.67,17.63-17.18,17.74-9.68,.11-17.9-8.04-17.86-17.73,.03-9.5,7.99-17.32,17.61-17.32Z"/>
  <path class="cls-8" d="M844.2,241.65c-1.6,11.31-3.11,22.13-4.66,32.94-.71,4.92-1.56,9.83-2.18,14.76-.29,2.27-1.28,2.8-3.27,2.02-.15-.06-.32-.08-.48-.13-4.4-1.43-10.91-1.63-12.63-4.61-1.9-3.3,2.95-8.12,4.87-12.26,4.33-9.34,8.87-18.57,13.4-27.82,.91-1.85,1.47-4.12,4.96-4.92Z"/>
  <path class="cls-8" d="M589.31,241.71c3.01,.64,3.64,2.67,4.48,4.38,6.07,12.39,11.97,24.86,18.18,37.18,1.63,3.24,.71,4.4-2.38,5.09-1.94,.43-3.85,1.04-5.76,1.61-7.71,2.29-7.61,2.28-8.67-5.44-1.81-13.17-3.76-26.32-5.63-39.47-.14-.96-.13-1.94-.22-3.35Z"/>
  <path class="cls-5" d="M781.57,427.54c6.28,.16,11.63,5.86,11.37,12.13-.25,6.15-5.59,11.25-11.76,11.24-6.36,0-11.76-5.54-11.6-11.88,.17-6.43,5.61-11.65,11.99-11.49Z"/>
  <path class="cls-5" d="M640.53,442.29c-.09-6.27,5.4-11.76,11.75-11.76,6.1,0,11.44,5.21,11.66,11.35,.22,6.28-5.11,11.85-11.49,12.01-6.33,.15-11.82-5.2-11.92-11.6Z"/>
</svg>