<?xml version="1.0" ?><svg viewBox="0 0 64 64" xmlns="http://www.w3.org/2000/svg"><title/><g id="Icons"><path d="M22,60a1,1,0,0,1-1-1V49a1,1,0,0,1,2,0V59A1,1,0,0,1,22,60Z" style="fill:#727172"/><path d="M13,22a5.006,5.006,0,0,1-5-5V15a5,5,0,0,1,10,0v2A5.006,5.006,0,0,1,13,22Zm0-10a3,3,0,0,0-3,3v2a3,3,0,0,0,6,0V15A3,3,0,0,0,13,12Z" style="fill:#727172"/><path d="M27,60a1,1,0,0,1-1-1V45a1,1,0,0,0-1-1H23a1,1,0,0,1-1-1V33a7.009,7.009,0,0,0-7-7H11a6.992,6.992,0,0,0-6.053,3.5A1,1,0,1,1,3.213,28.5,8.993,8.993,0,0,1,11,24h4a9.01,9.01,0,0,1,9,9v9h1a3,3,0,0,1,3,3V59A1,1,0,0,1,27,60Z" style="fill:#727172"/><path d="M17,50H3a3,3,0,0,1-3-3V31a3,3,0,0,1,3-3H17a3,3,0,0,1,3,3V47A3,3,0,0,1,17,50ZM3,30a1,1,0,0,0-1,1V47a1,1,0,0,0,1,1H17a1,1,0,0,0,1-1V31a1,1,0,0,0-1-1Z" style="fill:#727172"/><path d="M10,60a1,1,0,0,1-1-1V49a1,1,0,0,1,2,0V59A1,1,0,0,1,10,60Z" style="fill:#727172"/><path d="M23,50H16a1,1,0,0,1,0-2h7a1,1,0,0,1,0,2Z" style="fill:#727172"/><path d="M17,60a1,1,0,0,1-1-1V49a1,1,0,0,1,2,0V59A1,1,0,0,1,17,60Z" style="fill:#727172"/><path d="M13,60H7a1,1,0,0,1,0-2h6a1,1,0,0,1,0,2Z" style="fill:#727172"/><path d="M57,40H27a1,1,0,0,1,0-2H56V36H27a1,1,0,0,1,0-2H57a1,1,0,0,1,1,1v4A1,1,0,0,1,57,40Z" style="fill:#727172"/><path d="M53,56H31a1,1,0,0,1,0-2H53a1,1,0,0,0,1-1V39a1,1,0,0,1,2,0V53A3,3,0,0,1,53,56Z" style="fill:#727172"/><path d="M59,20H53a1,1,0,0,1-1-1V16H49a1,1,0,0,1-1-1V9a1,1,0,0,1,1-1h3V5a1,1,0,0,1,1-1h6a1,1,0,0,1,1,1V8h3a1,1,0,0,1,1,1v6a1,1,0,0,1-1,1H60v3A1,1,0,0,1,59,20Zm-5-2h4V15a1,1,0,0,1,1-1h3V10H59a1,1,0,0,1-1-1V6H54V9a1,1,0,0,1-1,1H50v4h3a1,1,0,0,1,1,1Z" style="fill:#727172"/><path d="M39,18a5.006,5.006,0,0,1-5-5V11a5,5,0,0,1,10,0v2A5.006,5.006,0,0,1,39,18ZM39,8a3,3,0,0,0-3,3v2a3,3,0,0,0,6,0V11A3,3,0,0,0,39,8Z" style="fill:#727172"/><path d="M49,36a1,1,0,0,1-1-1V29a7.009,7.009,0,0,0-7-7H37a7.009,7.009,0,0,0-7,7v6a1,1,0,0,1-2,0V29a9.01,9.01,0,0,1,9-9h4a9.01,9.01,0,0,1,9,9v6A1,1,0,0,1,49,36Z" style="fill:#727172"/><path d="M33,36a1,1,0,0,1-1-1V31a1,1,0,0,1,2,0v4A1,1,0,0,1,33,36Z" style="fill:#727172"/><path d="M45,36a1,1,0,0,1-1-1V31a1,1,0,0,1,2,0v4A1,1,0,0,1,45,36Z" style="fill:#727172"/><path d="M53,36a1,1,0,0,1-1-1V27a1,1,0,0,0-1-1H47.92a1,1,0,0,1,0-2H51a3,3,0,0,1,3,3v8A1,1,0,0,1,53,36Z" style="fill:#727172"/></g></svg>