<svg xmlns="http://www.w3.org/2000/svg" xmlns:xlink="http://www.w3.org/1999/xlink" version="1.1" x="0px" y="0px" viewBox="0 0 100 125" style="enable-background:new 0 0 100 100;" xml:space="preserve"><path d="M90.031,25.292c0-4.095-1.584-7.934-4.461-10.811c-5.961-5.961-15.659-5.959-21.62,0L49.997,28.435L36.043,14.481  c-2.876-2.876-6.716-4.46-10.811-4.46s-7.934,1.584-10.81,4.461c-5.961,5.96-5.961,15.66,0,21.62l13.954,13.954L14.423,64.009  c-5.961,5.96-5.961,15.66,0,21.62c2.98,2.98,6.896,4.471,10.81,4.471c3.915,0,7.83-1.49,10.811-4.471l13.954-13.954L63.95,85.629  c2.98,2.981,6.895,4.471,10.811,4.471c3.914,0,7.83-1.491,10.81-4.471c2.877-2.876,4.461-6.715,4.461-10.81  s-1.584-7.934-4.461-10.81L71.617,50.055L85.57,36.102C88.447,33.226,90.031,29.386,90.031,25.292z M15.837,34.688  c-5.181-5.181-5.181-13.611,0-18.792v0c2.591-2.591,5.993-3.886,9.396-3.886c3.401,0,6.806,1.296,9.396,3.886l13.954,13.954  L29.791,48.641L15.837,34.688z M49.997,31.263l18.792,18.792L49.997,68.848L31.205,50.055L49.997,31.263z M34.629,84.215  c-5.182,5.181-13.61,5.18-18.792,0c-5.181-5.181-5.181-13.611,0-18.792l13.954-13.954l18.792,18.792L34.629,84.215z M84.156,65.423  c2.499,2.499,3.875,5.835,3.875,9.396s-1.376,6.897-3.875,9.396c-5.181,5.18-13.611,5.181-18.792,0L51.411,70.262l18.792-18.792  L84.156,65.423z M70.203,48.641L51.411,29.849l13.954-13.954c2.591-2.59,5.993-3.886,9.396-3.886c3.403,0,6.806,1.295,9.396,3.886v0  c2.499,2.499,3.875,5.835,3.875,9.396s-1.376,6.897-3.875,9.396L70.203,48.641z"/><path d="M62.483,71.443c1.312,1.312,3.463,1.567,5.034,0.607l4.409,4.409c-0.958,1.581-0.755,3.672,0.608,5.036  c0.775,0.776,1.808,1.204,2.905,1.204s2.13-0.427,2.905-1.204c0.65-0.65,1.053-1.475,1.167-2.36c0.883-0.12,1.717-0.523,2.355-1.162  c1.602-1.602,1.602-4.209,0-5.811c-1.358-1.359-3.439-1.564-5.017-0.62l-4.415-4.415c0.944-1.578,0.738-3.659-0.62-5.017  c-0.775-0.776-1.808-1.204-2.905-1.204s-2.13,0.427-2.905,1.204c-0.65,0.65-1.053,1.475-1.167,2.36  c-0.883,0.12-1.717,0.523-2.355,1.162C60.882,67.234,60.882,69.841,62.483,71.443z M63.897,67.047  c0.474-0.474,1.129-0.692,1.796-0.592c0.315,0.043,0.628-0.06,0.852-0.282c0.223-0.223,0.328-0.539,0.282-0.851  c-0.097-0.669,0.119-1.324,0.593-1.798c0.797-0.797,2.186-0.797,2.982,0c0.822,0.822,0.822,2.16,0,2.982  c-0.391,0.391-0.391,1.023,0,1.414l5.655,5.655c0.391,0.391,1.023,0.391,1.414,0c0.822-0.822,2.16-0.822,2.982,0  s0.822,2.161,0,2.983c-0.474,0.473-1.13,0.688-1.796,0.591c-0.319-0.046-0.628,0.059-0.852,0.282  c-0.223,0.223-0.328,0.539-0.282,0.851c0.097,0.669-0.119,1.324-0.593,1.798c-0.797,0.797-2.186,0.797-2.982,0  c-0.822-0.822-0.822-2.16-0.012-2.971l0.016-0.015c0.193-0.187,0.303-0.442,0.305-0.71s-0.104-0.525-0.293-0.715l-5.656-5.656  c-0.188-0.188-0.449-0.286-0.715-0.285c-0.265,0-0.526,0.113-0.714,0.3c-0.797,0.797-2.186,0.797-2.982,0  C63.075,69.207,63.075,67.869,63.897,67.047z"/><text x="0" y="115" fill="#000000" font-size="5px" font-weight="bold" font-family="'Helvetica Neue', Helvetica, Arial-Unicode, Arial, Sans-serif">Created by Made by Made</text><text x="0" y="120" fill="#000000" font-size="5px" font-weight="bold" font-family="'Helvetica Neue', Helvetica, Arial-Unicode, Arial, Sans-serif">from the Noun Project</text></svg>